<mxfile host="app.diagrams.net" modified="2024-03-12T18:39:11.892Z" agent="Mozilla/5.0 (X11; Linux x86_64) AppleWebKit/537.36 (KHTML, like Gecko) Chrome/122.0.0.0 Safari/537.36" etag="W-AUalrgp91lO2FbMwBM" version="24.0.4" type="google">
  <diagram id="C5RBs43oDa-KdzZeNtuy" name="Page-1">
    <mxGraphModel grid="1" page="1" gridSize="10" guides="1" tooltips="1" connect="1" arrows="1" fold="1" pageScale="1" pageWidth="827" pageHeight="1169" math="0" shadow="0">
      <root>
        <mxCell id="WIyWlLk6GJQsqaUBKTNV-0" />
        <mxCell id="WIyWlLk6GJQsqaUBKTNV-1" parent="WIyWlLk6GJQsqaUBKTNV-0" />
        <mxCell id="CwtzLpmpygIa4Q22wbx1-0" value="&lt;&lt;interface&gt;&gt;&#xa;ISceneNode" style="swimlane;fontStyle=1;align=center;verticalAlign=top;childLayout=stackLayout;horizontal=1;startSize=43.125;horizontalStack=0;resizeParent=1;resizeParentMax=0;resizeLast=0;collapsible=0;marginBottom=0;" vertex="1" parent="WIyWlLk6GJQsqaUBKTNV-1">
          <mxGeometry x="171" y="325" width="152" height="109.125" as="geometry" />
        </mxCell>
        <mxCell id="CwtzLpmpygIa4Q22wbx1-1" style="line;strokeWidth=1;fillColor=none;align=left;verticalAlign=middle;spacingTop=-1;spacingLeft=3;spacingRight=3;rotatable=0;labelPosition=right;points=[];portConstraint=eastwest;strokeColor=inherit;" vertex="1" parent="CwtzLpmpygIa4Q22wbx1-0">
          <mxGeometry y="43.125" width="152" height="8" as="geometry" />
        </mxCell>
        <mxCell id="CwtzLpmpygIa4Q22wbx1-2" value="+getName(): string" style="text;strokeColor=none;fillColor=none;align=left;verticalAlign=top;spacingLeft=4;spacingRight=4;overflow=hidden;rotatable=0;points=[[0,0.5],[1,0.5]];portConstraint=eastwest;" vertex="1" parent="CwtzLpmpygIa4Q22wbx1-0">
          <mxGeometry y="51.125" width="152" height="29" as="geometry" />
        </mxCell>
        <mxCell id="CwtzLpmpygIa4Q22wbx1-3" value="+render(): string" style="text;strokeColor=none;fillColor=none;align=left;verticalAlign=top;spacingLeft=4;spacingRight=4;overflow=hidden;rotatable=0;points=[[0,0.5],[1,0.5]];portConstraint=eastwest;" vertex="1" parent="CwtzLpmpygIa4Q22wbx1-0">
          <mxGeometry y="80.125" width="152" height="29" as="geometry" />
        </mxCell>
        <mxCell id="CwtzLpmpygIa4Q22wbx1-4" value="SceneNode" style="swimlane;fontStyle=1;align=center;verticalAlign=top;childLayout=stackLayout;horizontal=1;startSize=23.6875;horizontalStack=0;resizeParent=1;resizeParentMax=0;resizeLast=0;collapsible=0;marginBottom=0;" vertex="1" parent="WIyWlLk6GJQsqaUBKTNV-1">
          <mxGeometry x="-6" y="582" width="506" height="391.6875" as="geometry" />
        </mxCell>
        <mxCell id="CwtzLpmpygIa4Q22wbx1-5" value="-ThreadGuardImpl* pThreadGuardImpl" style="text;strokeColor=none;fillColor=none;align=left;verticalAlign=top;spacingLeft=4;spacingRight=4;overflow=hidden;rotatable=0;points=[[0,0.5],[1,0.5]];portConstraint=eastwest;" vertex="1" parent="CwtzLpmpygIa4Q22wbx1-4">
          <mxGeometry y="23.6875" width="506" height="24" as="geometry" />
        </mxCell>
        <mxCell id="CwtzLpmpygIa4Q22wbx1-6" value="-string name" style="text;strokeColor=none;fillColor=none;align=left;verticalAlign=top;spacingLeft=4;spacingRight=4;overflow=hidden;rotatable=0;points=[[0,0.5],[1,0.5]];portConstraint=eastwest;" vertex="1" parent="CwtzLpmpygIa4Q22wbx1-4">
          <mxGeometry y="47.6875" width="506" height="24" as="geometry" />
        </mxCell>
        <mxCell id="CwtzLpmpygIa4Q22wbx1-7" value="-matrix4 localTransformation" style="text;strokeColor=none;fillColor=none;align=left;verticalAlign=top;spacingLeft=4;spacingRight=4;overflow=hidden;rotatable=0;points=[[0,0.5],[1,0.5]];portConstraint=eastwest;" vertex="1" parent="CwtzLpmpygIa4Q22wbx1-4">
          <mxGeometry y="71.6875" width="506" height="24" as="geometry" />
        </mxCell>
        <mxCell id="CwtzLpmpygIa4Q22wbx1-8" value="-matrix4 globalTransformation" style="text;strokeColor=none;fillColor=none;align=left;verticalAlign=top;spacingLeft=4;spacingRight=4;overflow=hidden;rotatable=0;points=[[0,0.5],[1,0.5]];portConstraint=eastwest;" vertex="1" parent="CwtzLpmpygIa4Q22wbx1-4">
          <mxGeometry y="95.6875" width="506" height="24" as="geometry" />
        </mxCell>
        <mxCell id="CwtzLpmpygIa4Q22wbx1-9" value="-SceneNode* parent" style="text;strokeColor=none;fillColor=none;align=left;verticalAlign=top;spacingLeft=4;spacingRight=4;overflow=hidden;rotatable=0;points=[[0,0.5],[1,0.5]];portConstraint=eastwest;" vertex="1" parent="CwtzLpmpygIa4Q22wbx1-4">
          <mxGeometry y="119.6875" width="506" height="24" as="geometry" />
        </mxCell>
        <mxCell id="CwtzLpmpygIa4Q22wbx1-10" value="-unordered_set children" style="text;strokeColor=none;fillColor=none;align=left;verticalAlign=top;spacingLeft=4;spacingRight=4;overflow=hidden;rotatable=0;points=[[0,0.5],[1,0.5]];portConstraint=eastwest;" vertex="1" parent="CwtzLpmpygIa4Q22wbx1-4">
          <mxGeometry y="143.6875" width="506" height="24" as="geometry" />
        </mxCell>
        <mxCell id="CwtzLpmpygIa4Q22wbx1-11" value="-ISceneGraph* sceneGraph" style="text;strokeColor=none;fillColor=none;align=left;verticalAlign=top;spacingLeft=4;spacingRight=4;overflow=hidden;rotatable=0;points=[[0,0.5],[1,0.5]];portConstraint=eastwest;" vertex="1" parent="CwtzLpmpygIa4Q22wbx1-4">
          <mxGeometry y="167.6875" width="506" height="24" as="geometry" />
        </mxCell>
        <mxCell id="CwtzLpmpygIa4Q22wbx1-12" style="line;strokeWidth=1;fillColor=none;align=left;verticalAlign=middle;spacingTop=-1;spacingLeft=3;spacingRight=3;rotatable=0;labelPosition=right;points=[];portConstraint=eastwest;strokeColor=inherit;" vertex="1" parent="CwtzLpmpygIa4Q22wbx1-4">
          <mxGeometry y="191.6875" width="506" height="8" as="geometry" />
        </mxCell>
        <mxCell id="CwtzLpmpygIa4Q22wbx1-13" value="+SceneNode(const string&amp; node_name, ISceneGraph* scene_graph)" style="text;strokeColor=none;fillColor=none;align=left;verticalAlign=top;spacingLeft=4;spacingRight=4;overflow=hidden;rotatable=0;points=[[0,0.5],[1,0.5]];portConstraint=eastwest;" vertex="1" parent="CwtzLpmpygIa4Q22wbx1-4">
          <mxGeometry y="199.6875" width="506" height="24" as="geometry" />
        </mxCell>
        <mxCell id="CwtzLpmpygIa4Q22wbx1-14" value="+getName(): string" style="text;strokeColor=none;fillColor=none;align=left;verticalAlign=top;spacingLeft=4;spacingRight=4;overflow=hidden;rotatable=0;points=[[0,0.5],[1,0.5]];portConstraint=eastwest;" vertex="1" parent="CwtzLpmpygIa4Q22wbx1-4">
          <mxGeometry y="223.6875" width="506" height="24" as="geometry" />
        </mxCell>
        <mxCell id="CwtzLpmpygIa4Q22wbx1-15" value="+setParent(newParent: SceneNode*): void" style="text;strokeColor=none;fillColor=none;align=left;verticalAlign=top;spacingLeft=4;spacingRight=4;overflow=hidden;rotatable=0;points=[[0,0.5],[1,0.5]];portConstraint=eastwest;" vertex="1" parent="CwtzLpmpygIa4Q22wbx1-4">
          <mxGeometry y="247.6875" width="506" height="24" as="geometry" />
        </mxCell>
        <mxCell id="CwtzLpmpygIa4Q22wbx1-16" value="+setLocalTransformation(transformation: matrix4): void" style="text;strokeColor=none;fillColor=none;align=left;verticalAlign=top;spacingLeft=4;spacingRight=4;overflow=hidden;rotatable=0;points=[[0,0.5],[1,0.5]];portConstraint=eastwest;" vertex="1" parent="CwtzLpmpygIa4Q22wbx1-4">
          <mxGeometry y="271.6875" width="506" height="24" as="geometry" />
        </mxCell>
        <mxCell id="CwtzLpmpygIa4Q22wbx1-17" value="+addChild(childNode: SceneNode*): void" style="text;strokeColor=none;fillColor=none;align=left;verticalAlign=top;spacingLeft=4;spacingRight=4;overflow=hidden;rotatable=0;points=[[0,0.5],[1,0.5]];portConstraint=eastwest;" vertex="1" parent="CwtzLpmpygIa4Q22wbx1-4">
          <mxGeometry y="295.6875" width="506" height="24" as="geometry" />
        </mxCell>
        <mxCell id="CwtzLpmpygIa4Q22wbx1-18" value="+deleteChild(childNode: SceneNode*): void" style="text;strokeColor=none;fillColor=none;align=left;verticalAlign=top;spacingLeft=4;spacingRight=4;overflow=hidden;rotatable=0;points=[[0,0.5],[1,0.5]];portConstraint=eastwest;" vertex="1" parent="CwtzLpmpygIa4Q22wbx1-4">
          <mxGeometry y="319.6875" width="506" height="24" as="geometry" />
        </mxCell>
        <mxCell id="CwtzLpmpygIa4Q22wbx1-19" value="+render(): string" style="text;strokeColor=none;fillColor=none;align=left;verticalAlign=top;spacingLeft=4;spacingRight=4;overflow=hidden;rotatable=0;points=[[0,0.5],[1,0.5]];portConstraint=eastwest;" vertex="1" parent="CwtzLpmpygIa4Q22wbx1-4">
          <mxGeometry y="343.6875" width="506" height="24" as="geometry" />
        </mxCell>
        <mxCell id="CwtzLpmpygIa4Q22wbx1-20" value="+notifySceneGraph(): void" style="text;strokeColor=none;fillColor=none;align=left;verticalAlign=top;spacingLeft=4;spacingRight=4;overflow=hidden;rotatable=0;points=[[0,0.5],[1,0.5]];portConstraint=eastwest;" vertex="1" parent="CwtzLpmpygIa4Q22wbx1-4">
          <mxGeometry y="367.6875" width="506" height="24" as="geometry" />
        </mxCell>
        <mxCell id="CwtzLpmpygIa4Q22wbx1-21" value="ThreadGuardImpl" style="swimlane;fontStyle=1;align=center;verticalAlign=top;childLayout=stackLayout;horizontal=1;startSize=24.46153846153846;horizontalStack=0;resizeParent=1;resizeParentMax=0;resizeLast=0;collapsible=0;marginBottom=0;" vertex="1" parent="WIyWlLk6GJQsqaUBKTNV-1">
          <mxGeometry x="620" y="630" width="319" height="156.46153846153845" as="geometry" />
        </mxCell>
        <mxCell id="CwtzLpmpygIa4Q22wbx1-22" value="-shared_mutex localTransformationMutex" style="text;strokeColor=none;fillColor=none;align=left;verticalAlign=top;spacingLeft=4;spacingRight=4;overflow=hidden;rotatable=0;points=[[0,0.5],[1,0.5]];portConstraint=eastwest;" vertex="1" parent="CwtzLpmpygIa4Q22wbx1-21">
          <mxGeometry y="24.46153846153846" width="319" height="24" as="geometry" />
        </mxCell>
        <mxCell id="CwtzLpmpygIa4Q22wbx1-23" value="-shared_mutex globalTransformationMutex" style="text;strokeColor=none;fillColor=none;align=left;verticalAlign=top;spacingLeft=4;spacingRight=4;overflow=hidden;rotatable=0;points=[[0,0.5],[1,0.5]];portConstraint=eastwest;" vertex="1" parent="CwtzLpmpygIa4Q22wbx1-21">
          <mxGeometry y="48.46153846153846" width="319" height="24" as="geometry" />
        </mxCell>
        <mxCell id="CwtzLpmpygIa4Q22wbx1-24" value="-mutex nameMutex" style="text;strokeColor=none;fillColor=none;align=left;verticalAlign=top;spacingLeft=4;spacingRight=4;overflow=hidden;rotatable=0;points=[[0,0.5],[1,0.5]];portConstraint=eastwest;" vertex="1" parent="CwtzLpmpygIa4Q22wbx1-21">
          <mxGeometry y="72.46153846153845" width="319" height="24" as="geometry" />
        </mxCell>
        <mxCell id="CwtzLpmpygIa4Q22wbx1-25" value="-mutex childrenMutex" style="text;strokeColor=none;fillColor=none;align=left;verticalAlign=top;spacingLeft=4;spacingRight=4;overflow=hidden;rotatable=0;points=[[0,0.5],[1,0.5]];portConstraint=eastwest;" vertex="1" parent="CwtzLpmpygIa4Q22wbx1-21">
          <mxGeometry y="96.46153846153845" width="319" height="24" as="geometry" />
        </mxCell>
        <mxCell id="CwtzLpmpygIa4Q22wbx1-26" value="-mutex parentMutex" style="text;strokeColor=none;fillColor=none;align=left;verticalAlign=top;spacingLeft=4;spacingRight=4;overflow=hidden;rotatable=0;points=[[0,0.5],[1,0.5]];portConstraint=eastwest;" vertex="1" parent="CwtzLpmpygIa4Q22wbx1-21">
          <mxGeometry y="120.46153846153845" width="319" height="24" as="geometry" />
        </mxCell>
        <mxCell id="CwtzLpmpygIa4Q22wbx1-27" style="line;strokeWidth=1;fillColor=none;align=left;verticalAlign=middle;spacingTop=-1;spacingLeft=3;spacingRight=3;rotatable=0;labelPosition=right;points=[];portConstraint=eastwest;strokeColor=inherit;" vertex="1" parent="CwtzLpmpygIa4Q22wbx1-21">
          <mxGeometry y="144.46153846153845" width="319" height="12" as="geometry" />
        </mxCell>
        <mxCell id="CwtzLpmpygIa4Q22wbx1-28" value="&lt;&lt;interface&gt;&gt;&#xa;ISceneGraph" style="swimlane;fontStyle=1;align=center;verticalAlign=top;childLayout=stackLayout;horizontal=1;startSize=38.785714285714285;horizontalStack=0;resizeParent=1;resizeParentMax=0;resizeLast=0;collapsible=0;marginBottom=0;" vertex="1" parent="WIyWlLk6GJQsqaUBKTNV-1">
          <mxGeometry x="374" y="20" width="422" height="176.78571428571428" as="geometry" />
        </mxCell>
        <mxCell id="CwtzLpmpygIa4Q22wbx1-29" style="line;strokeWidth=1;fillColor=none;align=left;verticalAlign=middle;spacingTop=-1;spacingLeft=3;spacingRight=3;rotatable=0;labelPosition=right;points=[];portConstraint=eastwest;strokeColor=inherit;" vertex="1" parent="CwtzLpmpygIa4Q22wbx1-28">
          <mxGeometry y="38.785714285714285" width="422" height="8" as="geometry" />
        </mxCell>
        <mxCell id="CwtzLpmpygIa4Q22wbx1-30" value="+update(observee: ISceneNode*): void" style="text;strokeColor=none;fillColor=none;align=left;verticalAlign=top;spacingLeft=4;spacingRight=4;overflow=hidden;rotatable=0;points=[[0,0.5],[1,0.5]];portConstraint=eastwest;" vertex="1" parent="CwtzLpmpygIa4Q22wbx1-28">
          <mxGeometry y="46.785714285714285" width="422" height="26" as="geometry" />
        </mxCell>
        <mxCell id="CwtzLpmpygIa4Q22wbx1-31" value="+attachClient(observer: IClient*): void" style="text;strokeColor=none;fillColor=none;align=left;verticalAlign=top;spacingLeft=4;spacingRight=4;overflow=hidden;rotatable=0;points=[[0,0.5],[1,0.5]];portConstraint=eastwest;" vertex="1" parent="CwtzLpmpygIa4Q22wbx1-28">
          <mxGeometry y="72.78571428571428" width="422" height="26" as="geometry" />
        </mxCell>
        <mxCell id="CwtzLpmpygIa4Q22wbx1-32" value="+detachClient(observer: IClient*): void" style="text;strokeColor=none;fillColor=none;align=left;verticalAlign=top;spacingLeft=4;spacingRight=4;overflow=hidden;rotatable=0;points=[[0,0.5],[1,0.5]];portConstraint=eastwest;" vertex="1" parent="CwtzLpmpygIa4Q22wbx1-28">
          <mxGeometry y="98.78571428571428" width="422" height="26" as="geometry" />
        </mxCell>
        <mxCell id="CwtzLpmpygIa4Q22wbx1-33" value="+addRoot(root_name: string): void" style="text;strokeColor=none;fillColor=none;align=left;verticalAlign=top;spacingLeft=4;spacingRight=4;overflow=hidden;rotatable=0;points=[[0,0.5],[1,0.5]];portConstraint=eastwest;" vertex="1" parent="CwtzLpmpygIa4Q22wbx1-28">
          <mxGeometry y="124.78571428571428" width="422" height="26" as="geometry" />
        </mxCell>
        <mxCell id="CwtzLpmpygIa4Q22wbx1-34" value="+addChild(name_child: string, name_parent: string): void" style="text;strokeColor=none;fillColor=none;align=left;verticalAlign=top;spacingLeft=4;spacingRight=4;overflow=hidden;rotatable=0;points=[[0,0.5],[1,0.5]];portConstraint=eastwest;" vertex="1" parent="CwtzLpmpygIa4Q22wbx1-28">
          <mxGeometry y="150.78571428571428" width="422" height="26" as="geometry" />
        </mxCell>
        <mxCell id="CwtzLpmpygIa4Q22wbx1-35" value="SceneGraph" style="swimlane;fontStyle=1;align=center;verticalAlign=top;childLayout=stackLayout;horizontal=1;startSize=24.7;horizontalStack=0;resizeParent=1;resizeParentMax=0;resizeLast=0;collapsible=0;marginBottom=0;" vertex="1" parent="WIyWlLk6GJQsqaUBKTNV-1">
          <mxGeometry x="374" y="259" width="422" height="257.7" as="geometry" />
        </mxCell>
        <mxCell id="CwtzLpmpygIa4Q22wbx1-36" value="-unordered_map nameToNode" style="text;strokeColor=none;fillColor=none;align=left;verticalAlign=top;spacingLeft=4;spacingRight=4;overflow=hidden;rotatable=0;points=[[0,0.5],[1,0.5]];portConstraint=eastwest;" vertex="1" parent="CwtzLpmpygIa4Q22wbx1-35">
          <mxGeometry y="24.7" width="422" height="25" as="geometry" />
        </mxCell>
        <mxCell id="CwtzLpmpygIa4Q22wbx1-37" value="-SceneNode* rootNode" style="text;strokeColor=none;fillColor=none;align=left;verticalAlign=top;spacingLeft=4;spacingRight=4;overflow=hidden;rotatable=0;points=[[0,0.5],[1,0.5]];portConstraint=eastwest;" vertex="1" parent="CwtzLpmpygIa4Q22wbx1-35">
          <mxGeometry y="49.7" width="422" height="25" as="geometry" />
        </mxCell>
        <mxCell id="CwtzLpmpygIa4Q22wbx1-38" value="-list clients" style="text;strokeColor=none;fillColor=none;align=left;verticalAlign=top;spacingLeft=4;spacingRight=4;overflow=hidden;rotatable=0;points=[[0,0.5],[1,0.5]];portConstraint=eastwest;" vertex="1" parent="CwtzLpmpygIa4Q22wbx1-35">
          <mxGeometry y="74.7" width="422" height="25" as="geometry" />
        </mxCell>
        <mxCell id="CwtzLpmpygIa4Q22wbx1-39" style="line;strokeWidth=1;fillColor=none;align=left;verticalAlign=middle;spacingTop=-1;spacingLeft=3;spacingRight=3;rotatable=0;labelPosition=right;points=[];portConstraint=eastwest;strokeColor=inherit;" vertex="1" parent="CwtzLpmpygIa4Q22wbx1-35">
          <mxGeometry y="99.7" width="422" height="8" as="geometry" />
        </mxCell>
        <mxCell id="CwtzLpmpygIa4Q22wbx1-40" value="+addRoot(root_name: string): void" style="text;strokeColor=none;fillColor=none;align=left;verticalAlign=top;spacingLeft=4;spacingRight=4;overflow=hidden;rotatable=0;points=[[0,0.5],[1,0.5]];portConstraint=eastwest;" vertex="1" parent="CwtzLpmpygIa4Q22wbx1-35">
          <mxGeometry y="107.7" width="422" height="25" as="geometry" />
        </mxCell>
        <mxCell id="CwtzLpmpygIa4Q22wbx1-41" value="+addChild(name_child: string, name_parent: string): void" style="text;strokeColor=none;fillColor=none;align=left;verticalAlign=top;spacingLeft=4;spacingRight=4;overflow=hidden;rotatable=0;points=[[0,0.5],[1,0.5]];portConstraint=eastwest;" vertex="1" parent="CwtzLpmpygIa4Q22wbx1-35">
          <mxGeometry y="132.7" width="422" height="25" as="geometry" />
        </mxCell>
        <mxCell id="CwtzLpmpygIa4Q22wbx1-42" value="+render(): void" style="text;strokeColor=none;fillColor=none;align=left;verticalAlign=top;spacingLeft=4;spacingRight=4;overflow=hidden;rotatable=0;points=[[0,0.5],[1,0.5]];portConstraint=eastwest;" vertex="1" parent="CwtzLpmpygIa4Q22wbx1-35">
          <mxGeometry y="157.7" width="422" height="25" as="geometry" />
        </mxCell>
        <mxCell id="CwtzLpmpygIa4Q22wbx1-43" value="+update(observee: ISceneNode*): void" style="text;strokeColor=none;fillColor=none;align=left;verticalAlign=top;spacingLeft=4;spacingRight=4;overflow=hidden;rotatable=0;points=[[0,0.5],[1,0.5]];portConstraint=eastwest;" vertex="1" parent="CwtzLpmpygIa4Q22wbx1-35">
          <mxGeometry y="182.7" width="422" height="25" as="geometry" />
        </mxCell>
        <mxCell id="CwtzLpmpygIa4Q22wbx1-44" value="+attachClient(observer: IClient*): void" style="text;strokeColor=none;fillColor=none;align=left;verticalAlign=top;spacingLeft=4;spacingRight=4;overflow=hidden;rotatable=0;points=[[0,0.5],[1,0.5]];portConstraint=eastwest;" vertex="1" parent="CwtzLpmpygIa4Q22wbx1-35">
          <mxGeometry y="207.7" width="422" height="25" as="geometry" />
        </mxCell>
        <mxCell id="CwtzLpmpygIa4Q22wbx1-45" value="+detachClient(observer: IClient*): void" style="text;strokeColor=none;fillColor=none;align=left;verticalAlign=top;spacingLeft=4;spacingRight=4;overflow=hidden;rotatable=0;points=[[0,0.5],[1,0.5]];portConstraint=eastwest;" vertex="1" parent="CwtzLpmpygIa4Q22wbx1-35">
          <mxGeometry y="232.7" width="422" height="25" as="geometry" />
        </mxCell>
        <mxCell id="CwtzLpmpygIa4Q22wbx1-46" value="&lt;&lt;interface&gt;&gt;&#xa;IClient" style="swimlane;fontStyle=1;align=center;verticalAlign=top;childLayout=stackLayout;horizontal=1;startSize=46.5;horizontalStack=0;resizeParent=1;resizeParentMax=0;resizeLast=0;collapsible=0;marginBottom=0;" vertex="1" parent="WIyWlLk6GJQsqaUBKTNV-1">
          <mxGeometry x="930" y="120" width="275" height="85.5" as="geometry" />
        </mxCell>
        <mxCell id="CwtzLpmpygIa4Q22wbx1-47" style="line;strokeWidth=1;fillColor=none;align=left;verticalAlign=middle;spacingTop=-1;spacingLeft=3;spacingRight=3;rotatable=0;labelPosition=right;points=[];portConstraint=eastwest;strokeColor=inherit;" vertex="1" parent="CwtzLpmpygIa4Q22wbx1-46">
          <mxGeometry y="46.5" width="275" height="8" as="geometry" />
        </mxCell>
        <mxCell id="CwtzLpmpygIa4Q22wbx1-48" value="+update(node: ISceneNode*): string" style="text;strokeColor=none;fillColor=none;align=left;verticalAlign=top;spacingLeft=4;spacingRight=4;overflow=hidden;rotatable=0;points=[[0,0.5],[1,0.5]];portConstraint=eastwest;" vertex="1" parent="CwtzLpmpygIa4Q22wbx1-46">
          <mxGeometry y="54.5" width="275" height="31" as="geometry" />
        </mxCell>
        <mxCell id="CwtzLpmpygIa4Q22wbx1-49" value="Client" style="swimlane;fontStyle=1;align=center;verticalAlign=top;childLayout=stackLayout;horizontal=1;startSize=25.857142857142858;horizontalStack=0;resizeParent=1;resizeParentMax=0;resizeLast=0;collapsible=0;marginBottom=0;" vertex="1" parent="WIyWlLk6GJQsqaUBKTNV-1">
          <mxGeometry x="856.5" y="284.63" width="422" height="189.85714285714286" as="geometry" />
        </mxCell>
        <mxCell id="CwtzLpmpygIa4Q22wbx1-50" value="-string name" style="text;strokeColor=none;fillColor=none;align=left;verticalAlign=top;spacingLeft=4;spacingRight=4;overflow=hidden;rotatable=0;points=[[0,0.5],[1,0.5]];portConstraint=eastwest;" vertex="1" parent="CwtzLpmpygIa4Q22wbx1-49">
          <mxGeometry y="25.857142857142858" width="422" height="26" as="geometry" />
        </mxCell>
        <mxCell id="CwtzLpmpygIa4Q22wbx1-51" value="-ISceneGraph* sceneGraph" style="text;strokeColor=none;fillColor=none;align=left;verticalAlign=top;spacingLeft=4;spacingRight=4;overflow=hidden;rotatable=0;points=[[0,0.5],[1,0.5]];portConstraint=eastwest;" vertex="1" parent="CwtzLpmpygIa4Q22wbx1-49">
          <mxGeometry y="51.85714285714286" width="422" height="26" as="geometry" />
        </mxCell>
        <mxCell id="CwtzLpmpygIa4Q22wbx1-52" style="line;strokeWidth=1;fillColor=none;align=left;verticalAlign=middle;spacingTop=-1;spacingLeft=3;spacingRight=3;rotatable=0;labelPosition=right;points=[];portConstraint=eastwest;strokeColor=inherit;" vertex="1" parent="CwtzLpmpygIa4Q22wbx1-49">
          <mxGeometry y="77.85714285714286" width="422" height="8" as="geometry" />
        </mxCell>
        <mxCell id="CwtzLpmpygIa4Q22wbx1-53" value="+Client(name: string, scene_graph: ISceneGraph*)" style="text;strokeColor=none;fillColor=none;align=left;verticalAlign=top;spacingLeft=4;spacingRight=4;overflow=hidden;rotatable=0;points=[[0,0.5],[1,0.5]];portConstraint=eastwest;" vertex="1" parent="CwtzLpmpygIa4Q22wbx1-49">
          <mxGeometry y="85.85714285714286" width="422" height="26" as="geometry" />
        </mxCell>
        <mxCell id="CwtzLpmpygIa4Q22wbx1-54" value="+addRoot(root_name: string): void" style="text;strokeColor=none;fillColor=none;align=left;verticalAlign=top;spacingLeft=4;spacingRight=4;overflow=hidden;rotatable=0;points=[[0,0.5],[1,0.5]];portConstraint=eastwest;" vertex="1" parent="CwtzLpmpygIa4Q22wbx1-49">
          <mxGeometry y="111.85714285714286" width="422" height="26" as="geometry" />
        </mxCell>
        <mxCell id="CwtzLpmpygIa4Q22wbx1-55" value="+addChild(name_child: string, name_parent: string): void" style="text;strokeColor=none;fillColor=none;align=left;verticalAlign=top;spacingLeft=4;spacingRight=4;overflow=hidden;rotatable=0;points=[[0,0.5],[1,0.5]];portConstraint=eastwest;" vertex="1" parent="CwtzLpmpygIa4Q22wbx1-49">
          <mxGeometry y="137.85714285714286" width="422" height="26" as="geometry" />
        </mxCell>
        <mxCell id="CwtzLpmpygIa4Q22wbx1-56" value="+update(node: ISceneNode*): string" style="text;strokeColor=none;fillColor=none;align=left;verticalAlign=top;spacingLeft=4;spacingRight=4;overflow=hidden;rotatable=0;points=[[0,0.5],[1,0.5]];portConstraint=eastwest;" vertex="1" parent="CwtzLpmpygIa4Q22wbx1-49">
          <mxGeometry y="163.85714285714286" width="422" height="26" as="geometry" />
        </mxCell>
        <mxCell id="CwtzLpmpygIa4Q22wbx1-57" value="" style="curved=1;startArrow=none;startSize=16;startFill=0;endArrow=diamondThin;exitX=1;exitY=0.25;entryX=1;entryY=0.5;rounded=0;exitDx=0;exitDy=0;entryDx=0;entryDy=0;endFill=1;endSize=14;" edge="1" parent="WIyWlLk6GJQsqaUBKTNV-1" source="CwtzLpmpygIa4Q22wbx1-46" target="CwtzLpmpygIa4Q22wbx1-45">
          <mxGeometry relative="1" as="geometry">
            <Array as="points">
              <mxPoint x="1320" y="260" />
              <mxPoint x="1361.72" y="463.88" />
              <mxPoint x="1120" y="540" />
            </Array>
            <mxPoint x="1362.143828125" y="350.005" as="sourcePoint" />
            <mxPoint x="1339.9977257898352" y="497.88" as="targetPoint" />
          </mxGeometry>
        </mxCell>
        <mxCell id="_q7Aeo0tcAW8O8vFvkFk-61" value="0..*" style="edgeLabel;html=1;align=center;verticalAlign=middle;resizable=0;points=[];" connectable="0" vertex="1" parent="CwtzLpmpygIa4Q22wbx1-57">
          <mxGeometry x="0.0679" y="5" relative="1" as="geometry">
            <mxPoint x="-15" y="-369" as="offset" />
          </mxGeometry>
        </mxCell>
        <mxCell id="CwtzLpmpygIa4Q22wbx1-58" value="" style="curved=1;startArrow=diamondThin;startSize=14;startFill=0;endArrow=none;endSize=12;entryX=-0.013;entryY=0.115;rounded=0;exitX=1.008;exitY=0.049;exitDx=0;exitDy=0;exitPerimeter=0;entryDx=0;entryDy=0;entryPerimeter=0;endFill=0;" edge="1" parent="WIyWlLk6GJQsqaUBKTNV-1" source="CwtzLpmpygIa4Q22wbx1-4" target="CwtzLpmpygIa4Q22wbx1-21">
          <mxGeometry relative="1" as="geometry">
            <Array as="points" />
            <mxPoint x="590" y="570" as="sourcePoint" />
          </mxGeometry>
        </mxCell>
        <mxCell id="_q7Aeo0tcAW8O8vFvkFk-59" value="1" style="edgeLabel;html=1;align=center;verticalAlign=middle;resizable=0;points=[];" connectable="0" vertex="1" parent="CwtzLpmpygIa4Q22wbx1-58">
          <mxGeometry x="0.3223" y="3" relative="1" as="geometry">
            <mxPoint x="36" y="1" as="offset" />
          </mxGeometry>
        </mxCell>
        <mxCell id="CwtzLpmpygIa4Q22wbx1-59" value="" style="curved=1;startArrow=block;startSize=16;startFill=0;endArrow=none;exitX=0.4989493853672986;exitY=1;entryX=0.4989493853672986;entryY=0;rounded=0;" edge="1" parent="WIyWlLk6GJQsqaUBKTNV-1" source="CwtzLpmpygIa4Q22wbx1-28" target="CwtzLpmpygIa4Q22wbx1-35">
          <mxGeometry relative="1" as="geometry">
            <Array as="points" />
          </mxGeometry>
        </mxCell>
        <mxCell id="CwtzLpmpygIa4Q22wbx1-60" value="" style="startArrow=block;startSize=16;startFill=0;endArrow=none;rounded=0;exitX=0.513;exitY=0.952;exitDx=0;exitDy=0;exitPerimeter=0;" edge="1" parent="WIyWlLk6GJQsqaUBKTNV-1" source="CwtzLpmpygIa4Q22wbx1-48" target="CwtzLpmpygIa4Q22wbx1-49">
          <mxGeometry relative="1" as="geometry">
            <mxPoint x="1068" y="220" as="sourcePoint" />
          </mxGeometry>
        </mxCell>
        <mxCell id="CwtzLpmpygIa4Q22wbx1-61" value="0..*" style="startArrow=diamondThin;startSize=14;startFill=0;endArrow=none;exitX=-0.009;exitY=0.074;entryX=0.75;entryY=0;rounded=0;exitDx=0;exitDy=0;exitPerimeter=0;entryDx=0;entryDy=0;" edge="1" parent="WIyWlLk6GJQsqaUBKTNV-1" source="CwtzLpmpygIa4Q22wbx1-35" target="CwtzLpmpygIa4Q22wbx1-0">
          <mxGeometry x="1" y="-20" relative="1" as="geometry">
            <mxPoint as="offset" />
          </mxGeometry>
        </mxCell>
        <mxCell id="CwtzLpmpygIa4Q22wbx1-73" value="1" style="startArrow=diamondThin;startFill=1;endArrow=none;exitX=0.12;exitY=-0.009;rounded=0;endFill=0;exitDx=0;exitDy=0;exitPerimeter=0;endSize=14;startSize=14;entryX=1;entryY=0.141;entryDx=0;entryDy=0;entryPerimeter=0;" edge="1" parent="WIyWlLk6GJQsqaUBKTNV-1" source="CwtzLpmpygIa4Q22wbx1-49" target="CwtzLpmpygIa4Q22wbx1-28">
          <mxGeometry x="0.9199" y="-11" relative="1" as="geometry">
            <mxPoint as="offset" />
            <mxPoint x="811" y="285" as="sourcePoint" />
            <mxPoint x="860" y="160" as="targetPoint" />
          </mxGeometry>
        </mxCell>
        <mxCell id="CwtzLpmpygIa4Q22wbx1-75" value="0..*" style="startArrow=diamondThin;startFill=1;endArrow=none;exitX=0.25;exitY=0;rounded=0;endFill=0;exitDx=0;exitDy=0;endSize=14;startSize=14;" edge="1" parent="WIyWlLk6GJQsqaUBKTNV-1" source="CwtzLpmpygIa4Q22wbx1-4" target="CwtzLpmpygIa4Q22wbx1-0">
          <mxGeometry x="0.6666" y="20" relative="1" as="geometry">
            <mxPoint as="offset" />
            <mxPoint x="740" y="650" as="sourcePoint" />
            <mxPoint x="200" y="490" as="targetPoint" />
          </mxGeometry>
        </mxCell>
        <mxCell id="_q7Aeo0tcAW8O8vFvkFk-58" value="1" style="curved=1;startArrow=diamondThin;startSize=14;startFill=1;endArrow=none;exitX=0.069;exitY=0.003;entryX=0.007;entryY=0.119;rounded=0;entryDx=0;entryDy=0;entryPerimeter=0;exitDx=0;exitDy=0;exitPerimeter=0;" edge="1" parent="WIyWlLk6GJQsqaUBKTNV-1" source="CwtzLpmpygIa4Q22wbx1-4" target="CwtzLpmpygIa4Q22wbx1-28">
          <mxGeometry x="0.9657" y="11" relative="1" as="geometry">
            <Array as="points">
              <mxPoint x="-54" y="51" />
            </Array>
            <mxPoint x="-90" y="20" as="sourcePoint" />
            <mxPoint x="63" y="184" as="targetPoint" />
            <mxPoint as="offset" />
          </mxGeometry>
        </mxCell>
      </root>
    </mxGraphModel>
  </diagram>
</mxfile>
